<?xml version="1.0" encoding="UTF-8" standalone="no"?>
<!-- Created with Inkscape (http://www.inkscape.org/) -->

<svg
   xmlns:dc="http://purl.org/dc/elements/1.1/"
   xmlns:cc="http://creativecommons.org/ns#"
   xmlns:rdf="http://www.w3.org/1999/02/22-rdf-syntax-ns#"
   xmlns:svg="http://www.w3.org/2000/svg"
   xmlns="http://www.w3.org/2000/svg"
   xmlns:sodipodi="http://sodipodi.sourceforge.net/DTD/sodipodi-0.dtd"
   xmlns:inkscape="http://www.inkscape.org/namespaces/inkscape"
   width="256"
   height="256"
   id="svg2"
   version="1.1"
   inkscape:version="0.48.2 r9819"
   sodipodi:docname="zombie.svg">
  <defs
     id="defs4" />
  <sodipodi:namedview
     id="base"
     pagecolor="#ffffff"
     bordercolor="#666666"
     borderopacity="1.0"
     inkscape:pageopacity="0.0"
     inkscape:pageshadow="2"
     inkscape:zoom="1"
     inkscape:cx="66.035378"
     inkscape:cy="221.85646"
     inkscape:document-units="px"
     inkscape:current-layer="layer1"
     showgrid="false"
     inkscape:window-width="1600"
     inkscape:window-height="838"
     inkscape:window-x="-8"
     inkscape:window-y="-8"
     inkscape:window-maximized="1" />
  <metadata
     id="metadata7">
    <rdf:RDF>
      <cc:Work
         rdf:about="">
        <dc:format>image/svg+xml</dc:format>
        <dc:type
           rdf:resource="http://purl.org/dc/dcmitype/StillImage" />
        <dc:title></dc:title>
      </cc:Work>
    </rdf:RDF>
  </metadata>
  <g
     inkscape:label="Layer 1"
     inkscape:groupmode="layer"
     id="layer1"
     transform="translate(0,-796.36218)">
    <g
       id="g6631"
       style="fill:#216778"
       transform="translate(-7,-4)">
      <path
         transform="translate(0,796.36218)"
         style="fill:#216778;fill-opacity:1;stroke:none"
         d="m 166.1701,101.32039 c 0,9.19294 1.70613,9.54594 -37.03472,9.54594 -20.35608,0 -38.239107,3.35773 -35.797285,-12.904697 2.389315,-15.912729 15.089185,-5.199265 35.443735,-4.949748 28.84135,0.353553 37.38827,1.767223 37.38827,8.308505 z"
         id="path6633"
         inkscape:connector-curvature="0"
         sodipodi:nodetypes="sssss" />
      <path
         transform="translate(0,796.36218)"
         style="fill:#216778;fill-opacity:1;stroke:none"
         d="m 192.22214,116.69215 c -5.12652,1.66117 -7.15117,-4.05954 -11.6573,-6.93457 -8.04035,-5.12996 -21.36225,3.99955 -21.28903,-7.28814 0.0647,-9.969465 11.10722,-4.154254 19.35705,-4.154254 8.24982,0 16.5149,17.428964 13.58928,18.376964 z"
         id="path6635"
         inkscape:connector-curvature="0"
         sodipodi:nodetypes="sssss" />
    </g>
    <path
       style="fill:#008080;fill-opacity:1;stroke:none"
       d="m 83.85278,1051.3282 c 2.914639,3.8545 -9.435607,3.8325 -16.900153,-2.5265 -7.967062,-6.7871 -23.338946,-4.6689 -16.240493,-14.9289 2.749437,-3.974 1.582955,-11.8113 10.264653,-4.7611 10.883278,8.838 20.296202,18.8048 22.875993,22.2165 z"
       id="path3352"
       inkscape:connector-curvature="0"
       sodipodi:nodetypes="sssss" />
    <path
       style="fill:#161310;fill-opacity:1;stroke:none;stroke-opacity:1"
       d="m 67.628911,960.79818 15.341726,-12.93255 c 3.126477,-2.6355 14.324332,-4.9491 16.544221,-0.35989 l 8.386402,17.3373 c 6.80287,14.06364 10.47158,26.25197 7.43572,28.99305 l -11.01268,9.94341 c -6.477685,5.8489 -21.204408,-8.20443 -28.890006,-15.24842 l -10.689462,-9.79713 c -9.895653,-9.06958 -0.242392,-15.30027 2.884075,-17.93577 z"
       id="rect3536-7"
       inkscape:connector-curvature="0"
       sodipodi:nodetypes="sssssssss"
       inkscape:transform-center-x="-4.9483577"
       inkscape:transform-center-y="13.23214" />
    <path
       sodipodi:nodetypes="sssss"
       inkscape:connector-curvature="0"
       id="path6648"
       d="m 138.30728,1034.5733 c 4.70366,1.1081 -4.81976,8.9715 -14.62476,8.8383 -10.46512,-0.1423 -20.94949,11.297 -22.03053,-1.1323 -0.41872,-4.8142 -6.317658,-10.1044 4.86558,-10.2155 14.01915,-0.1393 27.62643,1.5287 31.78971,2.5095 z"
       style="fill:#008080;fill-opacity:1;stroke:none"
       inkscape:transform-center-x="-15.216293"
       inkscape:transform-center-y="4.3704837" />
    <path
       style="fill:#161310;fill-opacity:1;stroke:none;stroke-opacity:1"
       d="m 104.54474,981.70722 3.62446,0.31297 c 6.65003,0.57429 10.04159,9.39483 9.60787,16.61118 l -1.37298,22.84063 c -0.25941,4.3172 -1.90542,11.3192 -4.41173,11.5589 l -11.59914,1.1091 c -2.505926,0.2436 -4.532453,-18.8562 -4.824095,-21.1298 l -2.445992,-19.06914 c -0.772784,-6.02489 4.563328,-12.82639 11.421657,-12.23403 z"
       id="rect3536-2-0-6"
       inkscape:connector-curvature="0"
       sodipodi:nodetypes="sssssssss"
       inkscape:transform-center-y="13.755556"
       inkscape:transform-center-x="-0.056348625" />
    <path
       style="fill:#000000;fill-opacity:1;stroke:none;stroke-opacity:1"
       d="m 82.831361,984.10002 3.033411,2.00827 c 5.565589,3.68467 4.325789,13.05307 0.493784,19.18301 l -12.129246,19.4028 c -2.292471,3.6674 -7.086725,9.0296 -9.402428,8.0414 l -10.717117,-4.5731 c -2.31726,-0.9845 5.037331,-18.7277 5.868542,-20.864 l 6.971565,-17.91662 c 2.202692,-5.66081 10.141734,-9.08203 15.881598,-5.28199 z"
       id="rect3536-2-0"
       inkscape:connector-curvature="0"
       sodipodi:nodetypes="sssssssss"
       inkscape:transform-center-y="12.248964"
       inkscape:transform-center-x="5.958587" />
    <g
       id="g5080"
       transform="matrix(0.92651353,-0.37626144,0.37626144,0.92651353,-417.37145,151.75607)"
       inkscape:transform-center-y="14.272873"
       inkscape:transform-center-x="-1.9187385"
       style="stroke:none;stroke-opacity:1">
      <path
         inkscape:transform-center-x="4.78268"
         inkscape:transform-center-y="19.24324"
         sodipodi:nodetypes="sssssssss"
         inkscape:connector-curvature="0"
         id="rect3536"
         d="m 156.13792,914.78874 18.89705,6.74687 c 3.851,1.37494 11.48661,9.88623 8.63856,14.11439 l -10.7595,15.97331 c -8.72788,12.9572 -17.41293,22.26223 -21.30958,21.01878 l -14.13521,-4.51076 c -8.31439,-2.65327 -3.58398,-22.45206 -1.36593,-32.63868 l 3.08494,-14.16798 c 2.85586,-13.11584 13.09866,-7.91087 16.94967,-6.53593 z"
         style="fill:#000000;fill-opacity:1;stroke:none;stroke-opacity:1" />
      <path
         inkscape:transform-center-x="4.78268"
         inkscape:transform-center-y="19.24324"
         sodipodi:nodetypes="sssssssss"
         inkscape:connector-curvature="0"
         id="rect3536-77"
         d="m 156.36422,914.6904 18.89705,6.74687 c 3.851,1.37494 -16.39269,-3.85938 -20.23644,-0.51061 l -5.13451,4.47331 c -3.80305,3.31331 -9.13199,18.03622 -11.05957,21.64378 l -4.13521,7.73924 c -4.11295,7.69757 -0.58398,-9.20206 1.63407,-19.38868 l 3.08494,-14.16798 c 2.85586,-13.11584 13.09866,-7.91087 16.94967,-6.53593 z"
         style="fill:#241c1c;fill-opacity:1;stroke:none;stroke-opacity:1" />
    </g>
    <g
       id="g6710">
      <path
         style="fill:#00ffff;fill-opacity:1;stroke:none"
         d="m 97.58681,862.18439 c 0,7.62813 -5.35005,13.81195 -11.94967,13.81195 -6.59961,0 -11.94966,-6.18382 -11.94966,-13.81195 0,-7.62813 5.35005,-13.81196 11.94966,-13.81196 6.59962,0 11.94967,6.18383 11.94967,13.81196 z"
         id="path3196"
         inkscape:connector-curvature="0" />
      <path
         style="fill:#008080;fill-opacity:1;stroke:none"
         d="m 85.24917,841.85444 c 4.51372,0 8.1475,3.91539 8.1475,8.7789 l 0,2.92735 c 0,4.86351 -3.63378,8.7789 -8.1475,8.7789 -4.51371,0 -8.1475,-3.91539 -8.1475,-8.7789 l 0,-2.92735 c 0,-4.86351 3.63379,-8.7789 8.1475,-8.7789 z"
         id="rect3200"
         inkscape:connector-curvature="0" />
      <path
         sodipodi:nodetypes="sssssssss"
         inkscape:connector-curvature="0"
         id="rect2996"
         d="m 80.75615,811.45596 22.88784,0 c 9.72703,0 13.51103,8.50064 14.42248,18.18486 l 2.50826,26.65024 c 1.66757,17.71788 -0.39782,23.30394 -9.71949,23.20138 -9.24133,-0.10168 -14.16157,-4.91396 -24.23708,-10.85489 -8.3789,-4.94055 3.80861,-14.9406 -4.42366,-20.12177 L 64.4177,837.32753 c -8.23228,-5.18117 6.61142,-25.87157 16.33845,-25.87157 z"
         style="fill:#008080;fill-opacity:1;stroke:none" />
      <path
         style="fill:#008080;fill-opacity:1;stroke:none"
         d="m 106.24077,839.40658 11.49828,-5.00731 6.50951,14.94777 -11.49828,5.00732 z"
         id="rect3001"
         inkscape:connector-curvature="0" />
      <path
         sodipodi:nodetypes="ccccc"
         inkscape:connector-curvature="0"
         id="rect3003-1"
         d="m 105.81302,835.59127 9.81051,-1.56232 0.0931,1.83562 0.10394,2.07029 z"
         style="opacity:0.2;fill:#800080;fill-opacity:1;stroke:none" />
      <path
         sodipodi:nodetypes="ccccc"
         inkscape:connector-curvature="0"
         id="rect3003"
         d="m 107.72157,835.79344 7.96316,-0.97372 0.0756,1.14406 0.0844,1.29032 z"
         style="fill:#241c1c;fill-opacity:1;stroke:none" />
      <path
         sodipodi:nodetypes="sssssssss"
         inkscape:connector-curvature="0"
         id="rect3191"
         d="m 98.20421,856.27538 20.08174,-4.49918 c 4.74585,-1.06329 0.91851,-2.63656 2.08498,2.08499 1.40073,5.6697 0.44988,9.8031 0.54869,15.47281 0.0847,4.86276 -1.88792,9.02078 -6.69392,9.76652 -11.10907,1.72379 -20.33347,-5.69906 -26.55617,-10.09573 -3.56964,-2.52214 -4.95247,-2.33773 -4.06024,-6.69391 l 1.86552,-9.10811 c 0.97588,-4.7646 7.98354,4.1359 12.7294,3.07261 z"
         style="opacity:0.5;fill:#6c5353;fill-opacity:1;stroke:none" />
      <path
         sodipodi:nodetypes="ccccc"
         inkscape:connector-curvature="0"
         id="rect3003-7-4"
         d="m 101.7947,862.22754 19.04726,-1.78213 0.18078,2.09389 0.2018,2.36154 z"
         style="opacity:0.2;fill:#800000;fill-opacity:1;stroke:none" />
      <path
         sodipodi:nodetypes="ccccc"
         inkscape:connector-curvature="0"
         id="rect3003-7"
         d="m 106.0585,862.41791 14.70055,-0.55045 0.13953,0.64677 0.15575,0.72943 z"
         style="opacity:0.5;fill:#550022;fill-opacity:1;stroke:none" />
      <g
         inkscape:transform-center-y="1.5358426"
         transform="matrix(0.95610889,0.2930116,-0.2930116,0.95610889,190.98506,-16.541649)"
         inkscape:transform-center-x="-4.0841086"
         id="g3206"
         style="stroke:none">
        <path
           inkscape:connector-curvature="0"
           style="fill:#2b1100;fill-opacity:1;stroke:none"
           d="m 198.5,63.03125 -5.0625,0.125 c -2.4311,0.05659 -4.71875,0.95874 -4.71875,2.15625 0,1.19752 2.84989,2.1062 5.28125,2.0625 l 4.5,-0.09375 0,-4.25 z"
           transform="translate(0,796.36218)"
           id="rect3062-9" />
        <path
           style="fill:#501616;fill-opacity:1;stroke:none"
           d="m 198.5039,859.04186 -5.40625,0.125 c -2.4311,0.0566 -4.71875,0.95874 -4.71875,2.15625 0,1.19752 2.81864,2.1062 5.25,2.0625 l 4.875,-0.0937 0,-4.25 z"
           id="rect3062"
           inkscape:connector-curvature="0" />
        <path
           style="fill:#aa4400;fill-opacity:1;stroke:none"
           d="m 198.5039,859.76061 -4.15625,0.0625 c -2.20839,0.0261 -4.28125,0.41607 -4.28125,0.96875 0,0.55267 0.36297,0.76455 2.53125,0.34375 1.99384,-0.38695 3.96184,-0.58684 5.90625,-0.6875 l 0,-0.6875 z"
           id="rect3062-0"
           inkscape:connector-curvature="0" />
        <path
           inkscape:connector-curvature="0"
           id="rect3101"
           d="m 198.37133,859.06067 c 0.85975,0 1.5519,0.97642 1.5519,2.18929 0,1.21287 -0.69215,2.1893 -1.5519,2.1893 -0.85977,0 -1.55191,-0.97643 -1.55191,-2.1893 0,-1.21287 0.69214,-2.18929 1.55191,-2.18929 z"
           style="fill:#916f6f;fill-opacity:1;stroke:none" />
        <path
           style="fill:#241c1c;fill-opacity:1;stroke:none"
           d="m 198.45445,859.44863 c 0.66017,0 1.69535,2.20719 0.91452,1.46876 -1.82866,-1.72936 -1.41425,0.33473 -1.30249,1.38563 0.0698,0.65647 -0.96995,-0.0892 -0.96995,-1.16393 0,-1.07469 0.69775,-1.69046 1.35792,-1.69046 z"
           id="rect3101-4"
           inkscape:connector-curvature="0"
           sodipodi:nodetypes="sssss" />
      </g>
      <path
         sodipodi:nodetypes="sssssssss"
         inkscape:connector-curvature="0"
         id="rect2996-8"
         d="m 87.21148,802.83314 11.93465,-0.31354 c 12.06335,-0.31691 21.44058,16.24817 11.77892,17.55781 l -12.72159,1.72442 c -12.19212,1.65265 -2.88881,5.18799 -5.47401,16.46044 -2.52929,11.02872 -1.97999,3.53395 -10.57114,14.38445 -10.23825,12.93079 -16.36015,4.22491 -17.93039,-6.01282 l -3.08657,-20.12391 c -1.57024,-10.23773 14.00677,-23.35994 26.07013,-23.67685 z"
         style="fill:#483e37;fill-opacity:1;stroke:none" />
      <path
         style="fill:#008080;fill-opacity:1;stroke:none"
         d="m 92.5136,842.41726 c 0,3.59305 -2.70218,6.50579 -6.03549,6.50579 -3.33331,0 -6.03549,-2.91274 -6.03549,-6.50579 0,-3.59305 2.70218,-6.50579 6.03549,-6.50579 3.33331,0 6.03549,2.91274 6.03549,6.50579 z"
         id="path3140"
         inkscape:connector-curvature="0" />
      <path
         sodipodi:nodetypes="sssssss"
         inkscape:connector-curvature="0"
         id="rect3180"
         d="m 109.28836,830.11979 4.85975,0 c 1.86723,0 3.17648,2.46201 3.17648,3.62836 0,1.16632 -1.30925,0.58226 -3.17648,0.58226 l -4.85975,0 c -1.86724,0 -2.67211,0.82456 -2.67211,-0.34179 0,-1.16635 0.80487,-3.86883 2.67211,-3.86883 z"
         style="fill:#2b1100;fill-opacity:1;stroke:none" />
      <path
         sodipodi:nodetypes="ccccc"
         inkscape:connector-curvature="0"
         id="rect3183"
         d="m 94.71952,841.52812 2.65911,-0.67252 5.52329,21.33526 -0.57107,0.0753 z"
         style="opacity:0.6;fill:#ff0000;fill-opacity:1;stroke:none" />
      <path
         sodipodi:nodetypes="sssss"
         inkscape:connector-curvature="0"
         id="path3188"
         d="m 122.01212,850.05284 c 0.26487,0.28649 -0.64919,0.52766 -1.3329,0.85393 -0.66057,0.31523 -1.02737,0.27231 -1.02737,-0.12162 0,-0.39394 0.22616,-1.38255 0.98372,-1.38255 0.75757,0 1.05891,0.30666 1.37655,0.65024 z"
         style="fill:#2b1100;fill-opacity:1;stroke:none" />
      <path
         sodipodi:nodetypes="sssss"
         inkscape:connector-curvature="0"
         id="path3196-4"
         d="m 89.98248,871.45702 c 1.23425,1.56494 1.85642,2.90982 -4.22894,2.90982 -6.08537,0 -8.96225,-2.14099 -8.96225,-6.98357 0,-4.84258 2.7562,0.18939 8.53547,2.09507 3.05915,1.00874 3.13776,0.054 4.65572,1.97868 z"
         style="fill:#008080;fill-opacity:1;stroke:none" />
      <path
         sodipodi:nodetypes="ccccc"
         inkscape:connector-curvature="0"
         id="rect3183-1"
         d="m 111.92689,843.91058 0.58876,1.02476 -8.66708,4.52656 -0.0964,-0.22737 z"
         style="opacity:0.6;fill:#ff0000;fill-opacity:1;stroke:none" />
      <path
         sodipodi:nodetypes="ccccc"
         inkscape:connector-curvature="0"
         id="rect3183-1-7"
         d="m 115.04787,873.54873 -0.42239,1.1038 -8.98441,-3.85856 0.11535,-0.21837 z"
         style="opacity:0.6;fill:#ff0000;fill-opacity:1;stroke:none" />
    </g>
    <g
       id="g3524"
       transform="matrix(0.87789005,0,0,0.87789005,8.8522749,66.651703)"
       inkscape:transform-center-x="1.5"
       inkscape:transform-center-y="-28"
       style="stroke:none;stroke-opacity:1">
      <path
         sodipodi:nodetypes="sssssssss"
         inkscape:connector-curvature="0"
         id="rect3246"
         d="m 69.59665,911.20125 30.76869,8.40139 c 8.07772,2.20562 13.09491,26.04938 14.13999,35.35821 l 4.01158,35.73236 c 1.04507,9.30889 -7.87619,15.69969 -15.70974,15.69969 l -34.33552,0 c -7.833553,0 -12.776805,-7.6618 -14.139988,-16.95449 L 46.535164,936.29033 C 45.171991,926.99769 66.14418,910.25855 69.59665,911.20125 z"
         style="fill:#000000;fill-opacity:1;stroke:none;stroke-opacity:1" />
      <path
         sodipodi:nodetypes="ccccc"
         inkscape:connector-curvature="0"
         id="rect3221"
         d="m 72.528594,903.90678 24.6305,12.97468 1.593369,15.89241 -32.585449,-15.44956 z"
         style="fill:#1a1a1a;fill-opacity:1;stroke:none;stroke-opacity:1" />
      <path
         sodipodi:nodetypes="sssssssss"
         inkscape:connector-curvature="0"
         id="rect3246-4"
         d="m 69.560474,911.41044 14.518686,6.65139 c 7.61259,3.48753 6.381367,4.5607 3.51499,4.10822 l -7.23842,-1.14264 c -4.252744,-0.67133 -17.168983,2.13063 -18.58474,5.69969 l -4.710516,11.875 c -2.888425,7.28159 -1.401804,60.3382 -2.764987,51.04551 l -7.796498,-53.14808 c -1.363173,-9.29264 19.807815,-26.57968 23.061485,-25.08909 z"
         style="fill:#1a1a1a;fill-opacity:1;stroke:none;stroke-opacity:1" />
      <rect
         y="993.6347"
         x="55.52037"
         height="17.848797"
         width="62.87608"
         id="rect3462"
         style="fill:#1a1a1a;fill-opacity:1;stroke:none;stroke-opacity:1" />
      <rect
         y="993.6723"
         x="56.148701"
         height="17.766058"
         width="6.9826794"
         id="rect3464-2"
         style="opacity:0.50000000000000000;fill:#6c5353;fill-opacity:1;stroke:none;stroke-opacity:1" />
      <rect
         y="993.6723"
         x="55.419495"
         height="17.766058"
         width="6.9826794"
         id="rect3464"
         style="fill:#808080;fill-opacity:1;stroke:none;stroke-opacity:1" />
      <rect
         y="993.77521"
         x="112.76143"
         height="17.67767"
         width="5.833631"
         id="rect3466"
         style="fill:#d4aa00;fill-opacity:1;stroke:none;stroke-opacity:1" />
      <rect
         y="994.92908"
         x="117.63184"
         height="14.393213"
         width="2.8389926"
         id="rect3468"
         style="fill:#d4aa00;fill-opacity:1;stroke:none;stroke-opacity:1" />
      <rect
         y="993.77521"
         x="112.76142"
         height="17.67767"
         width="1.8782525"
         id="rect3466-3"
         style="fill:#ffcc00;fill-opacity:1;stroke:none;stroke-opacity:1" />
      <rect
         y="994.91681"
         x="118.56769"
         height="14.393213"
         width="0.67347807"
         id="rect3468-2"
         style="fill:#ffcc00;fill-opacity:1;stroke:none;stroke-opacity:1" />
    </g>
    <g
       id="g6627"
       transform="translate(-2.9571073,-0.50000002)">
      <path
         sodipodi:nodetypes="sssss"
         inkscape:connector-curvature="0"
         id="path6621"
         d="m 166.1701,101.32039 c 0,9.19294 1.70613,9.54594 -37.03472,9.54594 -20.35608,0 -38.239107,3.35773 -35.797285,-12.904697 2.389315,-15.912729 15.089185,-5.199265 35.443735,-4.949748 28.84135,0.353553 37.38827,1.767223 37.38827,8.308505 z"
         style="fill:#008080;fill-opacity:1;stroke:none"
         transform="translate(0,796.36218)" />
      <path
         sodipodi:nodetypes="sssss"
         inkscape:connector-curvature="0"
         id="path6624"
         d="m 196.22214,112.19215 c -5.12652,1.66117 -3.83155,-6.97915 -14.4073,-4.68457 -10.09308,2.18985 -22.36225,1.74955 -22.53903,-5.03814 -0.25956,-9.966295 11.10722,-4.154254 19.35705,-4.154254 8.24982,0 20.5149,12.928964 17.58928,13.876964 z"
         style="fill:#008080;fill-opacity:1;stroke:none"
         transform="translate(0,796.36218)" />
    </g>
    <g
       id="g6614"
       inkscape:transform-center-x="-10.282027"
       inkscape:transform-center-y="1.7422794"
       transform="matrix(0.31043168,-0.95059569,0.95059569,0.31043168,-828.18128,766.26987)">
      <rect
         transform="matrix(0.99317957,-0.11659479,0.18091705,0.98349836,0,0)"
         rx="12.093373"
         y="896.59033"
         x="-16.096592"
         height="38.412766"
         width="25.508324"
         id="rect3249"
         style="fill:#000000;fill-opacity:1;stroke:none" />
      <path
         sodipodi:nodetypes="sssssssss"
         inkscape:connector-curvature="0"
         id="rect3249-1"
         d="m 158.38773,882.27091 1.31257,-0.1541 c 6.65403,-0.78115 14.3056,5.78648 11.18911,7.13065 l -6.21107,2.67891 c -1.33199,0.57449 -3.93491,1.18948 -4.70171,1.81973 l -3.01966,2.48196 c -5.17578,4.25412 -4.6064,19.92713 -5.8185,13.33795 l -2.57373,-13.99127 c -1.2121,-6.58917 3.16896,-12.52269 9.82299,-13.30383 z"
         style="fill:#1a1a1a;fill-opacity:1;stroke:none" />
      <g
         style="stroke:none"
         transform="matrix(0.86033626,-0.17467815,0.17467815,0.86033626,-147.95912,118.22234)"
         id="g3318">
        <rect
           style="fill:#333333;fill-opacity:1;stroke:none"
           id="rect3295"
           width="31.377863"
           height="17.854446"
           x="153.44217"
           y="154.79535"
           transform="translate(0,796.36218)" />
        <rect
           style="fill:#808080;fill-opacity:1;stroke:none"
           id="rect3297"
           width="10.16466"
           height="17.854446"
           x="153.35378"
           y="951.15753" />
      </g>
    </g>
    <path
       sodipodi:type="arc"
       style="fill:#164450;fill-opacity:1;stroke:none"
       id="path6656"
       sodipodi:cx="135.10159"
       sodipodi:cy="241.63689"
       sodipodi:rx="1.9887378"
       sodipodi:ry="0.92807764"
       d="m 137.09033,241.63689 a 1.9887378,0.92807764 0 1 1 -3.97747,0 1.9887378,0.92807764 0 1 1 3.97747,0 z"
       transform="translate(0,796.36218)" />
    <path
       sodipodi:type="arc"
       style="fill:#164450;fill-opacity:1;stroke:none"
       id="path6658"
       sodipodi:cx="137.00194"
       sodipodi:cy="239.95752"
       sodipodi:rx="1.6793786"
       sodipodi:ry="0.57452428"
       d="m 138.68132,239.95752 a 1.6793786,0.57452428 0 1 1 -3.35876,0 1.6793786,0.57452428 0 1 1 3.35876,0 z"
       transform="translate(0,796.36218)" />
    <path
       sodipodi:type="arc"
       style="fill:#164450;fill-opacity:1;stroke:none"
       id="path6660"
       sodipodi:cx="137.57646"
       sodipodi:cy="238.80847"
       sodipodi:rx="1.3700194"
       sodipodi:ry="0.39774758"
       d="m 138.94648,238.80847 a 1.3700194,0.39774758 0 1 1 -2.74004,0 1.3700194,0.39774758 0 1 1 2.74004,0 z"
       transform="translate(0,796.36218)" />
    <path
       sodipodi:type="arc"
       style="fill:#164450;fill-opacity:1;stroke:none"
       id="path6677"
       sodipodi:cx="80.25"
       sodipodi:cy="256.20312"
       sodipodi:rx="0.875"
       sodipodi:ry="1.109375"
       d="m 81.125,256.20312 a 0.875,1.109375 0 1 1 -1.75,0 0.875,1.109375 0 1 1 1.75,0 z"
       transform="matrix(0.62504205,-0.78059108,0.78059108,0.62504205,-169.18075,955.28876)" />
    <path
       transform="matrix(0.62504205,-0.78059108,0.78059108,0.62504205,-171.49325,955.25751)"
       d="m 81.125,256.20312 a 0.875,1.109375 0 1 1 -1.75,0 0.875,1.109375 0 1 1 1.75,0 z"
       sodipodi:ry="1.109375"
       sodipodi:rx="0.875"
       sodipodi:cy="256.20312"
       sodipodi:cx="80.25"
       id="path6679"
       style="fill:#164450;fill-opacity:1;stroke:none"
       sodipodi:type="arc" />
    <path
       sodipodi:type="arc"
       style="fill:#164450;fill-opacity:1;stroke:none"
       id="path6681"
       sodipodi:cx="80.25"
       sodipodi:cy="256.20312"
       sodipodi:rx="0.875"
       sodipodi:ry="1.109375"
       d="m 81.125,256.20312 a 0.875,1.109375 0 1 1 -1.75,0 0.875,1.109375 0 1 1 1.75,0 z"
       transform="matrix(0.62504205,-0.78059108,0.78059108,0.62504205,-167.11825,954.72626)" />
    <path
       sodipodi:nodetypes="ccccc"
       inkscape:connector-curvature="0"
       id="path6708"
       d="m 118.08246,903.12016 -0.37148,-2.71756 21.81847,-3.10716 0.0111,0.57591 z"
       style="opacity:0.6;fill:#ff0000;fill-opacity:1;stroke:none" />
  </g>
</svg>
